<mxfile host="Electron" agent="Mozilla/5.0 (Macintosh; Intel Mac OS X 10_15_7) AppleWebKit/537.36 (KHTML, like Gecko) draw.io/24.7.17 Chrome/128.0.6613.36 Electron/32.0.1 Safari/537.36" version="24.7.17">
  <diagram name="Page-1" id="-NKKbRdfkDm200roKM-x">
    <mxGraphModel dx="340" dy="752" grid="1" gridSize="10" guides="1" tooltips="1" connect="1" arrows="1" fold="1" page="1" pageScale="1" pageWidth="1169" pageHeight="827" math="0" shadow="0">
      <root>
        <mxCell id="0" />
        <mxCell id="1" parent="0" />
        <mxCell id="IhwbhZDvaB9gGrH6jqJY-1" value="Trip" style="swimlane;fontStyle=0;childLayout=stackLayout;horizontal=1;startSize=26;fillColor=none;horizontalStack=0;resizeParent=1;resizeParentMax=0;resizeLast=0;collapsible=1;marginBottom=0;whiteSpace=wrap;html=1;" vertex="1" parent="1">
          <mxGeometry x="50" y="20" width="250" height="280" as="geometry" />
        </mxCell>
        <mxCell id="IhwbhZDvaB9gGrH6jqJY-2" value="&lt;div class=&quot;class-attributes&quot;&gt;&lt;br/&gt;                        &lt;div class=&quot;attribute&quot;&gt;+ id: String&lt;/div&gt;&lt;br/&gt;                        &lt;div class=&quot;attribute&quot;&gt;+ name: String&lt;/div&gt;&lt;br/&gt;                        &lt;div class=&quot;attribute&quot;&gt;+ start_date: Date&lt;/div&gt;&lt;br/&gt;                        &lt;div class=&quot;attribute&quot;&gt;+ duration: Integer&lt;/div&gt;&lt;br/&gt;                        &lt;div class=&quot;attribute&quot;&gt;+ coordinator: String&lt;/div&gt;&lt;br/&gt;                        &lt;div class=&quot;attribute&quot;&gt;+ contact: String&lt;/div&gt;&lt;br/&gt;                        &lt;div class=&quot;attribute&quot;&gt;+ travelers: List&amp;lt;String&amp;gt;&lt;/div&gt;&lt;br/&gt;                        &lt;div class=&quot;attribute&quot;&gt;+ legs: List&amp;lt;String&amp;gt;&lt;/div&gt;&lt;/div&gt;" style="text;strokeColor=none;fillColor=none;align=left;verticalAlign=top;spacingLeft=4;spacingRight=4;overflow=hidden;rotatable=0;points=[[0,0.5],[1,0.5]];portConstraint=eastwest;whiteSpace=wrap;html=1;" vertex="1" parent="IhwbhZDvaB9gGrH6jqJY-1">
          <mxGeometry y="26" width="250" height="254" as="geometry" />
        </mxCell>
        <mxCell id="IhwbhZDvaB9gGrH6jqJY-5" value="Traveller" style="swimlane;fontStyle=0;childLayout=stackLayout;horizontal=1;startSize=26;fillColor=none;horizontalStack=0;resizeParent=1;resizeParentMax=0;resizeLast=0;collapsible=1;marginBottom=0;whiteSpace=wrap;html=1;" vertex="1" parent="1">
          <mxGeometry x="510" y="40" width="260" height="260" as="geometry" />
        </mxCell>
        <mxCell id="IhwbhZDvaB9gGrH6jqJY-6" value="&lt;div class=&quot;class-attributes&quot;&gt;&lt;br/&gt;                        &lt;div class=&quot;attribute&quot;&gt;+ id: String&lt;/div&gt;&lt;br/&gt;                        &lt;div class=&quot;attribute&quot;&gt;+ name: String&lt;/div&gt;&lt;br/&gt;                        &lt;div class=&quot;attribute&quot;&gt;+ address: String&lt;/div&gt;&lt;br/&gt;                        &lt;div class=&quot;attribute&quot;&gt;+ dob: Date&lt;/div&gt;&lt;br/&gt;                        &lt;div class=&quot;attribute&quot;&gt;+ emergency_contact: String&lt;/div&gt;&lt;br/&gt;                        &lt;div class=&quot;attribute&quot;&gt;+ gov_id_type: String&lt;/div&gt;&lt;br/&gt;                        &lt;div class=&quot;attribute&quot;&gt;+ gov_id_number: String&lt;/div&gt;&lt;/div&gt;" style="text;strokeColor=none;fillColor=none;align=left;verticalAlign=top;spacingLeft=4;spacingRight=4;overflow=hidden;rotatable=0;points=[[0,0.5],[1,0.5]];portConstraint=eastwest;whiteSpace=wrap;html=1;" vertex="1" parent="IhwbhZDvaB9gGrH6jqJY-5">
          <mxGeometry y="26" width="260" height="234" as="geometry" />
        </mxCell>
        <mxCell id="IhwbhZDvaB9gGrH6jqJY-9" value="User" style="swimlane;fontStyle=0;childLayout=stackLayout;horizontal=1;startSize=26;fillColor=none;horizontalStack=0;resizeParent=1;resizeParentMax=0;resizeLast=0;collapsible=1;marginBottom=0;whiteSpace=wrap;html=1;" vertex="1" parent="1">
          <mxGeometry x="20" y="414" width="160" height="170" as="geometry" />
        </mxCell>
        <mxCell id="IhwbhZDvaB9gGrH6jqJY-10" value="&lt;div class=&quot;class-attributes&quot;&gt;&#xa;                        &lt;div class=&quot;attribute&quot;&gt;+ id: String&lt;/div&gt;&#xa;                        &lt;div class=&quot;attribute&quot;&gt;+ username: String&lt;/div&gt;&#xa;                        &lt;div class=&quot;attribute&quot;&gt;+ password: String&lt;/div&gt;&#xa;                        &lt;div class=&quot;attribute&quot;&gt;+ role: String&lt;/div&gt;&#xa;                    &lt;/div&gt;" style="text;strokeColor=none;fillColor=none;align=left;verticalAlign=top;spacingLeft=4;spacingRight=4;overflow=hidden;rotatable=0;points=[[0,0.5],[1,0.5]];portConstraint=eastwest;whiteSpace=wrap;html=1;" vertex="1" parent="IhwbhZDvaB9gGrH6jqJY-9">
          <mxGeometry y="26" width="160" height="144" as="geometry" />
        </mxCell>
        <mxCell id="IhwbhZDvaB9gGrH6jqJY-13" value="TripLeg" style="swimlane;fontStyle=0;childLayout=stackLayout;horizontal=1;startSize=26;fillColor=none;horizontalStack=0;resizeParent=1;resizeParentMax=0;resizeLast=0;collapsible=1;marginBottom=0;whiteSpace=wrap;html=1;" vertex="1" parent="1">
          <mxGeometry x="570" y="400" width="200" height="310" as="geometry" />
        </mxCell>
        <mxCell id="IhwbhZDvaB9gGrH6jqJY-14" value="&lt;div class=&quot;class-header&quot;&gt;&lt;/div&gt;&#xa;                    &lt;div class=&quot;class-attributes&quot;&gt;&#xa;                        &lt;div class=&quot;attribute&quot;&gt;+ id: String&lt;/div&gt;&#xa;                        &lt;div class=&quot;attribute&quot;&gt;+ trip_id: String&lt;/div&gt;&#xa;                        &lt;div class=&quot;attribute&quot;&gt;+ start_location: String&lt;/div&gt;&#xa;                        &lt;div class=&quot;attribute&quot;&gt;+ destination: String&lt;/div&gt;&#xa;                        &lt;div class=&quot;attribute&quot;&gt;+ transport_provider: String&lt;/div&gt;&#xa;                        &lt;div class=&quot;attribute&quot;&gt;+ transport_mode: String&lt;/div&gt;&#xa;                        &lt;div class=&quot;attribute&quot;&gt;+ leg_type: String&lt;/div&gt;&#xa;                        &lt;div class=&quot;attribute&quot;&gt;+ cost: Integer&lt;/div&gt;&#xa;                    &lt;/div&gt;" style="text;strokeColor=none;fillColor=none;align=left;verticalAlign=top;spacingLeft=4;spacingRight=4;overflow=hidden;rotatable=0;points=[[0,0.5],[1,0.5]];portConstraint=eastwest;whiteSpace=wrap;html=1;" vertex="1" parent="IhwbhZDvaB9gGrH6jqJY-13">
          <mxGeometry y="26" width="200" height="284" as="geometry" />
        </mxCell>
        <mxCell id="IhwbhZDvaB9gGrH6jqJY-18" value="" style="endArrow=block;startArrow=block;endFill=1;startFill=1;html=1;rounded=0;entryX=0;entryY=0.5;entryDx=0;entryDy=0;" edge="1" parent="1" target="IhwbhZDvaB9gGrH6jqJY-6">
          <mxGeometry width="160" relative="1" as="geometry">
            <mxPoint x="300" y="169.5" as="sourcePoint" />
            <mxPoint x="460" y="169.5" as="targetPoint" />
          </mxGeometry>
        </mxCell>
        <mxCell id="IhwbhZDvaB9gGrH6jqJY-21" value="&lt;div class=&quot;relationship&quot;&gt;&lt;span style=&quot;background-color: initial;&quot;&gt;&lt;b&gt;Relationships:&amp;nbsp;&lt;/b&gt;&lt;/span&gt;&lt;/div&gt;&lt;div class=&quot;relationship&quot;&gt;&lt;span style=&quot;background-color: initial;&quot;&gt;&lt;br&gt;&lt;/span&gt;&lt;/div&gt;&lt;div class=&quot;relationship&quot;&gt;&lt;span style=&quot;background-color: initial;&quot;&gt;A Trip can have many travellers&amp;nbsp; &amp;nbsp;&lt;/span&gt;&lt;/div&gt;&lt;div class=&quot;relationship&quot;&gt;&lt;span style=&quot;background-color: initial;&quot;&gt;A Traveller can have many trips&amp;nbsp;&lt;/span&gt;&lt;/div&gt;&lt;div class=&quot;relationship&quot;&gt;&lt;span style=&quot;background-color: initial;&quot;&gt;A User can manage many Trips&lt;/span&gt;&lt;/div&gt;&lt;div class=&quot;relationship&quot;&gt;&lt;span style=&quot;background-color: initial;&quot;&gt;A Trip can have many TripLegs&amp;nbsp;&lt;/span&gt;&lt;/div&gt;&lt;div class=&quot;relationship&quot;&gt;&lt;span style=&quot;background-color: initial;&quot;&gt;A trip coordinator has many trips&lt;/span&gt;&lt;/div&gt;&lt;div class=&quot;relationship&quot;&gt;&lt;span style=&quot;background-color: initial;&quot;&gt;A tripleg has a single tripcoordinator&amp;nbsp; &amp;nbsp;&lt;/span&gt;&lt;/div&gt;&lt;div class=&quot;relationship&quot;&gt;&lt;span style=&quot;background-color: initial;&quot;&gt;Reporting and analytics can have one trip&lt;/span&gt;&lt;/div&gt;&lt;div class=&quot;relationship&quot;&gt;&lt;span style=&quot;background-color: initial;&quot;&gt;A trip leg can have one reporting and analytics&lt;/span&gt;&lt;/div&gt;&lt;div class=&quot;relationship&quot;&gt;&lt;span style=&quot;background-color: initial;&quot;&gt;Reporting analytics can have many trip_legs&amp;nbsp;&amp;nbsp;&lt;/span&gt;&lt;br&gt;&lt;/div&gt;" style="html=1;whiteSpace=wrap;" vertex="1" parent="1">
          <mxGeometry x="800" y="60" width="330" height="260" as="geometry" />
        </mxCell>
        <mxCell id="IhwbhZDvaB9gGrH6jqJY-25" value="Trip Coordinator" style="swimlane;fontStyle=0;childLayout=stackLayout;horizontal=1;startSize=26;fillColor=none;horizontalStack=0;resizeParent=1;resizeParentMax=0;resizeLast=0;collapsible=1;marginBottom=0;whiteSpace=wrap;html=1;" vertex="1" parent="1">
          <mxGeometry x="250" y="420" width="150" height="170" as="geometry" />
        </mxCell>
        <mxCell id="IhwbhZDvaB9gGrH6jqJY-26" value="&lt;div class=&quot;class-attributes&quot;&gt;&#xa;                        &lt;div class=&quot;attribute&quot;&gt;+ id: String&lt;/div&gt;&#xa;                        &lt;div class=&quot;attribute&quot;&gt;+ username: String&lt;/div&gt;&#xa;                        &lt;div class=&quot;attribute&quot;&gt;+ password: String&lt;/div&gt;&#xa;                        &lt;div class=&quot;attribute&quot;&gt;+ role: String&lt;/div&gt;&#xa;                    &lt;/div&gt;" style="text;strokeColor=none;fillColor=none;align=left;verticalAlign=top;spacingLeft=4;spacingRight=4;overflow=hidden;rotatable=0;points=[[0,0.5],[1,0.5]];portConstraint=eastwest;whiteSpace=wrap;html=1;" vertex="1" parent="IhwbhZDvaB9gGrH6jqJY-25">
          <mxGeometry y="26" width="150" height="144" as="geometry" />
        </mxCell>
        <mxCell id="IhwbhZDvaB9gGrH6jqJY-32" value="" style="endArrow=none;html=1;edgeStyle=orthogonalEdgeStyle;rounded=0;entryX=0;entryY=0.5;entryDx=0;entryDy=0;" edge="1" parent="IhwbhZDvaB9gGrH6jqJY-25" target="IhwbhZDvaB9gGrH6jqJY-26">
          <mxGeometry relative="1" as="geometry">
            <mxPoint x="-70" y="100" as="sourcePoint" />
            <mxPoint x="90" y="100" as="targetPoint" />
          </mxGeometry>
        </mxCell>
        <mxCell id="IhwbhZDvaB9gGrH6jqJY-33" value="parent" style="edgeLabel;resizable=0;html=1;align=left;verticalAlign=bottom;" connectable="0" vertex="1" parent="IhwbhZDvaB9gGrH6jqJY-32">
          <mxGeometry x="-1" relative="1" as="geometry" />
        </mxCell>
        <mxCell id="IhwbhZDvaB9gGrH6jqJY-34" value="child" style="edgeLabel;resizable=0;html=1;align=right;verticalAlign=bottom;" connectable="0" vertex="1" parent="IhwbhZDvaB9gGrH6jqJY-32">
          <mxGeometry x="1" relative="1" as="geometry" />
        </mxCell>
        <mxCell id="IhwbhZDvaB9gGrH6jqJY-29" value="" style="endArrow=block;dashed=1;endFill=0;endSize=12;html=1;rounded=0;exitX=-0.015;exitY=0.292;exitDx=0;exitDy=0;exitPerimeter=0;entryX=1.012;entryY=0.963;entryDx=0;entryDy=0;entryPerimeter=0;" edge="1" parent="1" source="IhwbhZDvaB9gGrH6jqJY-14" target="IhwbhZDvaB9gGrH6jqJY-2">
          <mxGeometry width="160" relative="1" as="geometry">
            <mxPoint x="300" y="300" as="sourcePoint" />
            <mxPoint x="320" y="270" as="targetPoint" />
          </mxGeometry>
        </mxCell>
        <mxCell id="IhwbhZDvaB9gGrH6jqJY-30" value="" style="endArrow=block;dashed=1;endFill=0;endSize=12;html=1;rounded=0;exitX=0.5;exitY=0;exitDx=0;exitDy=0;entryX=1.012;entryY=0.963;entryDx=0;entryDy=0;entryPerimeter=0;" edge="1" parent="1" source="IhwbhZDvaB9gGrH6jqJY-25">
          <mxGeometry width="160" relative="1" as="geometry">
            <mxPoint x="470" y="513" as="sourcePoint" />
            <mxPoint x="200" y="300" as="targetPoint" />
          </mxGeometry>
        </mxCell>
        <mxCell id="IhwbhZDvaB9gGrH6jqJY-31" value="" style="endArrow=block;dashed=1;endFill=0;endSize=12;html=1;rounded=0;entryX=0;entryY=0.5;entryDx=0;entryDy=0;" edge="1" parent="1" target="IhwbhZDvaB9gGrH6jqJY-14">
          <mxGeometry width="160" relative="1" as="geometry">
            <mxPoint x="400" y="520" as="sourcePoint" />
            <mxPoint x="560" y="520" as="targetPoint" />
          </mxGeometry>
        </mxCell>
        <mxCell id="IhwbhZDvaB9gGrH6jqJY-35" value="1" style="text;html=1;align=center;verticalAlign=middle;whiteSpace=wrap;rounded=0;" vertex="1" parent="1">
          <mxGeometry x="300" y="140" width="60" height="30" as="geometry" />
        </mxCell>
        <mxCell id="IhwbhZDvaB9gGrH6jqJY-38" value="0...*" style="text;html=1;align=center;verticalAlign=middle;whiteSpace=wrap;rounded=0;" vertex="1" parent="1">
          <mxGeometry x="440" y="180" width="60" height="30" as="geometry" />
        </mxCell>
        <mxCell id="IhwbhZDvaB9gGrH6jqJY-39" value="1" style="text;html=1;align=center;verticalAlign=middle;whiteSpace=wrap;rounded=0;" vertex="1" parent="1">
          <mxGeometry x="320" y="390" width="60" height="30" as="geometry" />
        </mxCell>
        <mxCell id="IhwbhZDvaB9gGrH6jqJY-40" value="0...*" style="text;html=1;align=center;verticalAlign=middle;whiteSpace=wrap;rounded=0;" vertex="1" parent="1">
          <mxGeometry x="220" y="300" width="60" height="30" as="geometry" />
        </mxCell>
        <mxCell id="IhwbhZDvaB9gGrH6jqJY-41" value="1" style="text;html=1;align=center;verticalAlign=middle;whiteSpace=wrap;rounded=0;" vertex="1" parent="1">
          <mxGeometry x="300" y="280" width="60" height="30" as="geometry" />
        </mxCell>
        <mxCell id="IhwbhZDvaB9gGrH6jqJY-43" value="" style="endArrow=block;dashed=1;endFill=0;endSize=12;html=1;rounded=0;exitX=0.015;exitY=0.276;exitDx=0;exitDy=0;exitPerimeter=0;entryX=1.012;entryY=0.963;entryDx=0;entryDy=0;entryPerimeter=0;" edge="1" parent="1" source="IhwbhZDvaB9gGrH6jqJY-14" target="IhwbhZDvaB9gGrH6jqJY-42">
          <mxGeometry width="160" relative="1" as="geometry">
            <mxPoint x="573" y="504" as="sourcePoint" />
            <mxPoint x="303" y="291" as="targetPoint" />
          </mxGeometry>
        </mxCell>
        <mxCell id="IhwbhZDvaB9gGrH6jqJY-42" value="0...*" style="text;html=1;align=center;verticalAlign=middle;whiteSpace=wrap;rounded=0;" vertex="1" parent="1">
          <mxGeometry x="520" y="450" width="60" height="30" as="geometry" />
        </mxCell>
        <mxCell id="IhwbhZDvaB9gGrH6jqJY-44" value="1" style="text;html=1;align=center;verticalAlign=middle;whiteSpace=wrap;rounded=0;" vertex="1" parent="1">
          <mxGeometry x="380" y="500" width="60" height="30" as="geometry" />
        </mxCell>
        <mxCell id="IhwbhZDvaB9gGrH6jqJY-46" value="0...*" style="text;html=1;align=center;verticalAlign=middle;whiteSpace=wrap;rounded=0;" vertex="1" parent="1">
          <mxGeometry x="520" y="530" width="60" height="30" as="geometry" />
        </mxCell>
        <mxCell id="IhwbhZDvaB9gGrH6jqJY-48" value="Reporting and Analytics" style="swimlane;fontStyle=0;childLayout=stackLayout;horizontal=1;startSize=26;fillColor=none;horizontalStack=0;resizeParent=1;resizeParentMax=0;resizeLast=0;collapsible=1;marginBottom=0;whiteSpace=wrap;html=1;" vertex="1" parent="1">
          <mxGeometry x="850" y="380" width="300" height="310" as="geometry" />
        </mxCell>
        <mxCell id="IhwbhZDvaB9gGrH6jqJY-53" value="" style="endArrow=open;endFill=1;endSize=12;html=1;rounded=0;entryX=1.01;entryY=0.426;entryDx=0;entryDy=0;entryPerimeter=0;" edge="1" parent="IhwbhZDvaB9gGrH6jqJY-48" target="IhwbhZDvaB9gGrH6jqJY-14">
          <mxGeometry width="160" relative="1" as="geometry">
            <mxPoint y="137.5" as="sourcePoint" />
            <mxPoint x="160" y="137.5" as="targetPoint" />
          </mxGeometry>
        </mxCell>
        <mxCell id="IhwbhZDvaB9gGrH6jqJY-49" value="&lt;div class=&quot;class-header&quot;&gt;&lt;/div&gt;&lt;div class=&quot;class-attributes&quot;&gt;&lt;font style=&quot;font-size: 12px;&quot;&gt;&lt;code data-darkreader-inline-color=&quot;&quot; data-darkreader-inline-bgimage=&quot;&quot; data-darkreader-inline-bgcolor=&quot;&quot; style=&quot;background: transparent; color: rgb(56, 58, 66); direction: ltr; white-space: pre; word-spacing: normal; word-break: normal; line-height: 1.5; tab-size: 2; hyphens: none; --darkreader-inline-bgcolor: transparent; --darkreader-inline-bgimage: none; --darkreader-inline-color: var(--darkreader-text-383a42, #5d666b);&quot; class=&quot;language-mermaid&quot;&gt;&lt;font face=&quot;Verdana&quot;&gt;  +generate_financial_report&lt;span data-darkreader-inline-color=&quot;&quot; style=&quot;--darkreader-inline-color: var(--darkreader-text-383a42, #5d666b);&quot; class=&quot;token&quot;&gt;(&lt;/span&gt;&lt;span data-darkreader-inline-color=&quot;&quot; style=&quot;--darkreader-inline-color: var(--darkreader-text-383a42, #5d666b);&quot; class=&quot;token&quot;&gt;)&lt;/span&gt;&lt;br&gt;  +generate_traveler_report&lt;span data-darkreader-inline-color=&quot;&quot; style=&quot;--darkreader-inline-color: var(--darkreader-text-383a42, #5d666b);&quot; class=&quot;token&quot;&gt;(&lt;/span&gt;&lt;span data-darkreader-inline-color=&quot;&quot; style=&quot;--darkreader-inline-color: var(--darkreader-text-383a42, #5d666b);&quot; class=&quot;token&quot;&gt;)&lt;/span&gt;&lt;/font&gt;&lt;/code&gt;&lt;/font&gt;&lt;/div&gt;&lt;div class=&quot;class-attributes&quot;&gt;&lt;code data-darkreader-inline-color=&quot;&quot; data-darkreader-inline-bgimage=&quot;&quot; data-darkreader-inline-bgcolor=&quot;&quot; style=&quot;background: transparent; color: rgb(56, 58, 66); direction: ltr; white-space: pre; word-spacing: normal; word-break: normal; line-height: 1.5; tab-size: 2; hyphens: none; --darkreader-inline-bgcolor: transparent; --darkreader-inline-bgimage: none; --darkreader-inline-color: var(--darkreader-text-383a42, #5d666b);&quot; class=&quot;language-mermaid&quot;&gt;&lt;font face=&quot;kcD0RaWg-YId_n8yAI-f&quot; size=&quot;3&quot;&gt;  +generate_trip_performance_report&lt;span data-darkreader-inline-color=&quot;&quot; style=&quot;--darkreader-inline-color: var(--darkreader-text-383a42, #5d666b);&quot; class=&quot;token&quot;&gt;(&lt;/span&gt;&lt;span data-darkreader-inline-color=&quot;&quot; style=&quot;--darkreader-inline-color: var(--darkreader-text-383a42, #5d666b);&quot; class=&quot;token&quot;&gt;)&lt;/span&gt;&lt;br&gt;    &lt;/font&gt;&lt;/code&gt;&lt;br&gt;                    &lt;/div&gt;" style="text;strokeColor=none;fillColor=none;align=left;verticalAlign=top;spacingLeft=4;spacingRight=4;overflow=hidden;rotatable=0;points=[[0,0.5],[1,0.5]];portConstraint=eastwest;whiteSpace=wrap;html=1;" vertex="1" parent="IhwbhZDvaB9gGrH6jqJY-48">
          <mxGeometry y="26" width="300" height="284" as="geometry" />
        </mxCell>
        <mxCell id="IhwbhZDvaB9gGrH6jqJY-50" value="" style="endArrow=block;dashed=1;endFill=0;endSize=12;html=1;rounded=0;entryX=0.996;entryY=0.724;entryDx=0;entryDy=0;entryPerimeter=0;exitX=0;exitY=0.06;exitDx=0;exitDy=0;exitPerimeter=0;" edge="1" parent="1" source="IhwbhZDvaB9gGrH6jqJY-49" target="IhwbhZDvaB9gGrH6jqJY-2">
          <mxGeometry width="160" relative="1" as="geometry">
            <mxPoint x="490" y="390" as="sourcePoint" />
            <mxPoint x="650" y="390" as="targetPoint" />
          </mxGeometry>
        </mxCell>
        <mxCell id="IhwbhZDvaB9gGrH6jqJY-51" value="0...*" style="text;html=1;align=center;verticalAlign=middle;whiteSpace=wrap;rounded=0;" vertex="1" parent="1">
          <mxGeometry x="790" y="380" width="60" height="30" as="geometry" />
        </mxCell>
        <mxCell id="IhwbhZDvaB9gGrH6jqJY-52" value="1" style="text;html=1;align=center;verticalAlign=middle;whiteSpace=wrap;rounded=0;" vertex="1" parent="1">
          <mxGeometry x="310" y="210" width="60" height="30" as="geometry" />
        </mxCell>
        <mxCell id="IhwbhZDvaB9gGrH6jqJY-55" value="0...*" style="text;html=1;align=center;verticalAlign=middle;whiteSpace=wrap;rounded=0;" vertex="1" parent="1">
          <mxGeometry x="760" y="510" width="60" height="30" as="geometry" />
        </mxCell>
        <mxCell id="IhwbhZDvaB9gGrH6jqJY-56" value="1" style="text;html=1;align=center;verticalAlign=middle;whiteSpace=wrap;rounded=0;" vertex="1" parent="1">
          <mxGeometry x="810" y="500" width="60" height="30" as="geometry" />
        </mxCell>
      </root>
    </mxGraphModel>
  </diagram>
</mxfile>
